# xmcd
#
# Track frame offsets:
#	150
#	13367
#	26762
#	41472
#	56677
#	77757
#	87752
#	105782
#	121392
#	136765
#	152182
#	166200
#	179490
#
# Disc length: 2728 seconds
# Revision: 0
# Processed by: cddbd v1.5.2PL0 Copyright (c) Steve Scherf et al.
# Submitted via: dBpowerAMP V12.0
#
DISCID=9d0aa60d
DTITLE=Corb Lund - Hair In My Eyes Like A Highland Steer
DYEAR=2005
DGENRE=Country
TTITLE0=Hair in My Eyes Like a Highland Steer
TTITLE1=The Truck Got Stuck
TTITLE2=Always Keep an Edge on Your Knife
TTITLE3=The Rodeo's Over (featuring Ian Tyson)
TTITLE4=Hurtin' Albertan
TTITLE5=Big Butch Bass Bull Fiddle
TTITLE6=All I Wanna Do Is Play Cards
TTITLE7=The Truth Comes Out
TTITLE8=Counterfeiters' Blues
TTITLE9=Good Copenhagen
TTITLE10=Trouble in the Country
TTITLE11=Little Foothills Heaven
TTITLE12=The Truck Got Stuck Talkin' Blues (featuring Ramblin' Jack Elliott)
EXTD=
EXTT0=
EXTT1=
EXTT2=
EXTT3=
EXTT4=
EXTT5=
EXTT6=
EXTT7=
EXTT8=
EXTT9=
EXTT10=
EXTT11=
EXTT12=
PLAYORDER=
